<svg xmlns="http://www.w3.org/2000/svg" viewBox="0 0 64 64" width="64" height="64" fill="none">
  <defs>
    <linearGradient id="favShield" x1="0%" y1="0%" x2="100%" y2="100%">
      <stop offset="0%" stop-color="#0b1f3a"/>
      <stop offset="60%" stop-color="#16325c"/>
      <stop offset="100%" stop-color="#1e3a8a"/>
    </linearGradient>
    <linearGradient id="favGold" x1="0%" y1="0%" x2="100%" y2="100%">
      <stop offset="0%" stop-color="#fef08a"/>
      <stop offset="50%" stop-color="#f59e0b"/>
      <stop offset="100%" stop-color="#d97706"/>
    </linearGradient>
    <linearGradient id="favCyan" x1="0%" y1="0%" x2="100%" y2="100%">
      <stop offset="0%" stop-color="#38bdf8"/>
      <stop offset="100%" stop-color="#2563eb"/>
    </linearGradient>
  </defs>

  <!-- Shield Outline -->
  <path d="M32 4 L56 14 C56 42 32 60 32 60 C32 60 8 42 8 14 Z" fill="url(#favShield)" stroke="url(#favGold)" stroke-width="1.5"/>

  <!-- Orbital STEM Path -->
  <ellipse cx="32" cy="30" rx="16" ry="6" stroke="url(#favCyan)" stroke-width="1.2" stroke-dasharray="2 1" transform="rotate(-30 32 30)"/>

  <!-- Dynamic 'E' Apex Wing (The EDGE) -->
  <path d="M22 22 L42 22 L38 27 L26 27 L25 30 L36 30 L33 35 L24 35 L23 40 L41 40 L37 45 L18 45 Z" fill="url(#favGold)"/>

  <!-- Golden Apex Spark -->
  <polygon points="42,12 43.5,16 48,16.5 44,19 45.5,23.5 42,21.5 38.5,23.5 40,19 36,16.5 40.5,16" fill="url(#favGold)"/>
</svg>